<svg xmlns="http://www.w3.org/2000/svg" width="18.004" height="18.003" viewBox="0 0 18.004 18.003">
  <g id="グループ_400" data-name="グループ 400" transform="translate(-293 -12)">
    <path id="パス_738" data-name="パス 738" d="M26.671,9.329a1.125,1.125,0,0,1,0,1.593l-15.75,15.75a1.126,1.126,0,0,1-1.593-1.593l15.75-15.75a1.125,1.125,0,0,1,1.593,0Z" transform="translate(284.002 3.001)" fill-rule="evenodd"/>
    <path id="パス_739" data-name="パス 739" d="M9.329,9.329a1.125,1.125,0,0,0,0,1.593l15.75,15.75a1.126,1.126,0,0,0,1.593-1.593L10.922,9.329a1.125,1.125,0,0,0-1.593,0Z" transform="translate(284.002 3.001)" fill-rule="evenodd"/>
  </g>
</svg>
