<svg xmlns="http://www.w3.org/2000/svg" width="32" height="39" viewBox="0 0 32 39">
  <g id="グループ_383" data-name="グループ 383" transform="translate(-324.001 -11)">
    <path id="パス_737" data-name="パス 737" d="M5.625,25.167a1.087,1.087,0,0,1,1.091-1.083H28.534a1.083,1.083,0,1,1,0,2.167H6.716A1.087,1.087,0,0,1,5.625,25.167Zm0-8.667a1.087,1.087,0,0,1,1.091-1.083H28.534a1.083,1.083,0,1,1,0,2.167H6.716A1.087,1.087,0,0,1,5.625,16.5Zm0-8.667A1.087,1.087,0,0,1,6.716,6.75H28.534a1.083,1.083,0,1,1,0,2.167H6.716A1.087,1.087,0,0,1,5.625,7.833Z" transform="translate(322.375 4.25)" fill-rule="evenodd"/>
    <text id="MENU" transform="translate(340.001 47)" font-size="10" font-family="SegoeUI-Bold, Segoe UI" font-weight="700"><tspan x="-15.012" y="0">MENU</tspan></text>
  </g>
</svg>
